<?xml version="1.0" encoding="utf-8"?>
<svg viewBox="0 0 500 500" xmlns="http://www.w3.org/2000/svg">
  <g id="SVGRepo_iconCarrier" style="display: inline;" transform="matrix(0.696789026260376, 0, 0, 0.696789026260376, -106.42486572265602, -118.17569732666004)">
    <path d="m 319.488,280.576 h 61.44 v 61.44 h -61.44 z m 61.44,0 h 61.44 v 61.44 h -61.44 z m 61.44,-61.44 h 61.44 v 61.44 h -61.44 z" fill="#8ff0a4" id="path90"/>
    <path d="m 442.368,280.576 h 61.44 v 61.44 h -61.44 z" fill="#57e389" id="path92"/>
    <path d="m 501.76,219.136 h 61.44 v 61.44 h -61.44 z" fill="#8ff0a4" id="path94"/>
    <path d="m 501.76,280.576 h 61.44 v 61.44 h -61.44 z" fill="#57e389" id="path96"/>
    <path d="m 563.2,280.576 h 61.44 v 61.44 H 563.2 Z m -303.104,59.392 h 61.44 v 61.44 h -61.44 z m 0,61.44 h 61.44 v 61.44 h -61.44 z" fill="#8ff0a4" id="path98"/>
    <path d="m 319.488,339.968 h 61.44 v 61.44 h -61.44 z m 61.44,0 h 61.44 v 61.44 h -61.44 z m -61.44,61.44 h 61.44 v 61.44 h -61.44 z m 61.44,0 h 61.44 v 61.44 h -61.44 z m 61.44,-61.44 h 61.44 v 61.44 h -61.44 z m 0,61.44 h 61.44 v 61.44 h -61.44 z" fill="#57e389" id="path100"/>
    <path d="m 501.76,339.968 h 61.44 v 61.44 h -61.44 z m 61.44,0 h 61.44 v 61.44 H 563.2 Z m -61.44,61.44 h 61.44 v 61.44 h -61.44 z m 61.44,0 h 61.44 v 61.44 H 563.2 Z" fill="#57e389" id="path102"/>
    <path d="m 198.656,462.848 h 61.44 v 61.44 h -61.44 z" fill="#8ff0a4" id="path104"/>
    <path d="m 260.096,462.848 h 61.44 v 61.44 h -61.44 z" fill="#57e389" id="path106"/>
    <path d="m 319.488,462.848 h 61.44 v 61.44 h -61.44 z m 61.44,0 h 61.44 v 61.44 h -61.44 z" fill="#57e389" id="path108"/>
    <path d="m 442.368,462.848 h 61.44 v 61.44 h -61.44 z" fill="#8ff0a4" id="path110"/>
    <path d="m 501.76,462.848 h 61.44 v 61.44 h -61.44 z" fill="#8ff0a4" id="path112"/>
    <path d="m 563.2,462.848 h 61.44 v 61.44 H 563.2 Z" fill="#57e389" id="path114"/>
    <path d="m 198.656,522.24 h 61.44 v 61.44 h -61.44 z" fill="#8ff0a4" id="path116"/>
    <path d="m 260.096,522.24 h 61.44 v 61.44 h -61.44 z" fill="#57e389" id="path118"/>
    <path d="m 260.096,583.68 h 61.44 v 61.44 h -61.44 z" fill="#8ff0a4" id="path120"/>
    <path d="m 319.488,522.24 h 61.44 v 61.44 h -61.44 z m 61.44,0 h 61.44 v 61.44 h -61.44 z m -61.44,61.44 h 61.44 v 61.44 h -61.44 z m 61.44,0 h 61.44 v 61.44 h -61.44 z" fill="#57e389" id="path122"/>
    <path d="m 442.368,522.24 h 61.44 v 61.44 h -61.44 z" fill="#8ff0a4" id="path124"/>
    <path d="m 442.368,583.68 h 61.44 v 61.44 h -61.44 z" fill="#57e389" id="path126"/>
    <path d="m 501.76,522.24 h 61.44 v 61.44 h -61.44 z" fill="#8ff0a4" id="path128"/>
    <path d="m 563.2,522.24 h 61.44 v 61.44 H 563.2 Z m -61.44,61.44 h 61.44 v 61.44 h -61.44 z m 61.44,0 h 61.44 v 61.44 H 563.2 Z" fill="#57e389" id="path130"/>
    <path d="m 624.64,280.576 h 61.44 v 61.44 h -61.44 z" fill="#8ff0a4" id="path132"/>
    <path d="m 624.64,339.968 h 61.44 v 61.44 h -61.44 z" fill="#57e389" id="path134"/>
    <path d="m 684.032,339.968 h 61.44 v 61.44 h -61.44 z" fill="#8ff0a4" id="path136"/>
    <path d="m 624.64,401.408 h 61.44 v 61.44 h -61.44 z" fill="#57e389" id="path138"/>
    <path d="m 684.032,401.408 h 61.44 v 61.44 h -61.44 z" fill="#8ff0a4" id="path140"/>
    <path d="m 624.64,462.848 h 61.44 v 61.44 h -61.44 z" fill="#57e389" id="path142"/>
    <path d="m 684.032,462.848 h 61.44 v 61.44 h -61.44 z" fill="#57e389" id="path144"/>
    <path d="m 624.64,522.24 h 61.44 v 61.44 h -61.44 z" fill="#57e389" id="path146"/>
    <path d="m 684.032,522.24 h 61.44 v 61.44 h -61.44 z m -59.392,61.44 h 61.44 v 61.44 h -61.44 z" fill="#57e389" id="path148"/>
    <path d="m 684.032,583.68 h 61.44 v 61.44 h -61.44 z m -423.936,61.44 h 61.44 v 61.44 h -61.44 z" fill="#8ff0a4" id="path150"/>
    <path d="m 319.488,645.12 h 61.44 v 61.44 h -61.44 z m 61.44,0 h 61.44 v 61.44 h -61.44 z" fill="#57e389" id="path152"/>
    <path d="m 319.488,704.512 h 61.44 v 61.44 h -61.44 z m 61.44,0 h 61.44 v 61.44 h -61.44 z" fill="#8ff0a4" id="path154"/>
    <path d="m 442.368,645.12 h 61.44 v 61.44 h -61.44 z" fill="#57e389" id="path156"/>
    <path d="m 442.368,704.512 h 61.44 v 61.44 h -61.44 z" fill="#57e389" id="path158"/>
    <path d="m 501.76,645.12 h 61.44 v 61.44 h -61.44 z m 61.44,0 h 61.44 v 61.44 H 563.2 Z" fill="#57e389" id="path160"/>
    <path d="m 501.76,704.512 h 61.44 v 61.44 h -61.44 z" fill="#57e389" id="path162"/>
    <path d="m 563.2,704.512 h 61.44 v 61.44 H 563.2 Z" fill="#8ff0a4" id="path164"/>
    <path d="m 624.64,645.12 h 61.44 v 61.44 h -61.44 z" fill="#57e389" id="path166"/>
    <path d="m 684.032,645.12 h 61.44 v 61.44 h -61.44 z" fill="#8ff0a4" id="path168"/>
    <path d="m 624.64,704.512 h 61.44 v 61.44 H 624.64 Z M 745.472,462.848 h 61.44 v 61.44 h -61.44 z" fill="#8ff0a4" id="path170"/>
    <path d="m 745.472,522.24 h 61.44 v 61.44 h -61.44 z M 442.368,765.952 h 61.44 v 61.44 h -61.44 z" fill="#8ff0a4" id="path172"/>
    <path d="m 501.76,765.952 h 61.44 v 61.44 h -61.44 z" fill="#8ff0a4" id="path174"/>
  </g>
  <g id="SVGRepo_iconCarrier-4" style="display: inline;" transform="matrix(0.31235799193382263, 0.3154100179672241, -0.3154100179672241, 0.31235799193382263, 249.40510559082054, -79.24839019775379)">
    <path d="m 319.488,280.576 h 61.44 v 61.44 h -61.44 z m 61.44,0 h 61.44 v 61.44 h -61.44 z m 61.44,-61.44 h 61.44 v 61.44 h -61.44 z" fill="#8ff0a4" id="path90-7"/>
    <path d="m 442.368,280.576 h 61.44 v 61.44 h -61.44 z" fill="#57e389" id="path92-8"/>
    <path d="m 501.76,219.136 h 61.44 v 61.44 h -61.44 z" fill="#8ff0a4" id="path94-4"/>
    <path d="m 501.76,280.576 h 61.44 v 61.44 h -61.44 z" fill="#57e389" id="path96-5"/>
    <path d="m 563.2,280.576 h 61.44 v 61.44 H 563.2 Z m -303.104,59.392 h 61.44 v 61.44 h -61.44 z m 0,61.44 h 61.44 v 61.44 h -61.44 z" fill="#8ff0a4" id="path98-0"/>
    <path d="m 319.488,339.968 h 61.44 v 61.44 h -61.44 z m 61.44,0 h 61.44 v 61.44 h -61.44 z m -61.44,61.44 h 61.44 v 61.44 h -61.44 z m 61.44,0 h 61.44 v 61.44 h -61.44 z m 61.44,-61.44 h 61.44 v 61.44 h -61.44 z m 0,61.44 h 61.44 v 61.44 h -61.44 z" fill="#57e389" id="path100-3"/>
    <path d="m 501.76,339.968 h 61.44 v 61.44 h -61.44 z m 61.44,0 h 61.44 v 61.44 H 563.2 Z m -61.44,61.44 h 61.44 v 61.44 h -61.44 z m 61.44,0 h 61.44 v 61.44 H 563.2 Z" fill="#57e389" id="path102-6"/>
    <path d="m 198.656,462.848 h 61.44 v 61.44 h -61.44 z" fill="#8ff0a4" id="path104-1"/>
    <path d="m 260.096,462.848 h 61.44 v 61.44 h -61.44 z" fill="#57e389" id="path106-0"/>
    <path d="m 319.488,462.848 h 61.44 v 61.44 h -61.44 z m 61.44,0 h 61.44 v 61.44 h -61.44 z" fill="#57e389" id="path108-6"/>
    <path d="m 442.368,462.848 h 61.44 v 61.44 h -61.44 z" fill="#8ff0a4" id="path110-3"/>
    <path d="m 501.76,462.848 h 61.44 v 61.44 h -61.44 z" fill="#8ff0a4" id="path112-2"/>
    <path d="m 563.2,462.848 h 61.44 v 61.44 H 563.2 Z" fill="#57e389" id="path114-0"/>
    <path d="m 198.656,522.24 h 61.44 v 61.44 h -61.44 z" fill="#8ff0a4" id="path116-6"/>
    <path d="m 260.096,522.24 h 61.44 v 61.44 h -61.44 z" fill="#57e389" id="path118-1"/>
    <path d="m 260.096,583.68 h 61.44 v 61.44 h -61.44 z" fill="#8ff0a4" id="path120-5"/>
    <path d="m 319.488,522.24 h 61.44 v 61.44 h -61.44 z m 61.44,0 h 61.44 v 61.44 h -61.44 z m -61.44,61.44 h 61.44 v 61.44 h -61.44 z m 61.44,0 h 61.44 v 61.44 h -61.44 z" fill="#57e389" id="path122-5"/>
    <path d="m 442.368,522.24 h 61.44 v 61.44 h -61.44 z" fill="#8ff0a4" id="path124-4"/>
    <path d="m 442.368,583.68 h 61.44 v 61.44 h -61.44 z" fill="#57e389" id="path126-7"/>
    <path d="m 501.76,522.24 h 61.44 v 61.44 h -61.44 z" fill="#8ff0a4" id="path128-6"/>
    <path d="m 563.2,522.24 h 61.44 v 61.44 H 563.2 Z m -61.44,61.44 h 61.44 v 61.44 h -61.44 z m 61.44,0 h 61.44 v 61.44 H 563.2 Z" fill="#57e389" id="path130-5"/>
    <path d="m 624.64,280.576 h 61.44 v 61.44 h -61.44 z" fill="#8ff0a4" id="path132-6"/>
    <path d="m 624.64,339.968 h 61.44 v 61.44 h -61.44 z" fill="#57e389" id="path134-9"/>
    <path d="m 684.032,339.968 h 61.44 v 61.44 h -61.44 z" fill="#8ff0a4" id="path136-3"/>
    <path d="m 624.64,401.408 h 61.44 v 61.44 h -61.44 z" fill="#57e389" id="path138-7"/>
    <path d="m 684.032,401.408 h 61.44 v 61.44 h -61.44 z" fill="#8ff0a4" id="path140-4"/>
    <path d="m 624.64,462.848 h 61.44 v 61.44 h -61.44 z" fill="#57e389" id="path142-5"/>
    <path d="m 684.032,462.848 h 61.44 v 61.44 h -61.44 z" fill="#57e389" id="path144-2"/>
    <path d="m 624.64,522.24 h 61.44 v 61.44 h -61.44 z" fill="#57e389" id="path146-5"/>
    <path d="m 684.032,522.24 h 61.44 v 61.44 h -61.44 z m -59.392,61.44 h 61.44 v 61.44 h -61.44 z" fill="#57e389" id="path148-4"/>
    <path d="m 684.032,583.68 h 61.44 v 61.44 h -61.44 z m -423.936,61.44 h 61.44 v 61.44 h -61.44 z" fill="#8ff0a4" id="path150-7"/>
    <path d="m 319.488,645.12 h 61.44 v 61.44 h -61.44 z m 61.44,0 h 61.44 v 61.44 h -61.44 z" fill="#57e389" id="path152-4"/>
    <path d="m 319.488,704.512 h 61.44 v 61.44 h -61.44 z m 61.44,0 h 61.44 v 61.44 h -61.44 z" fill="#8ff0a4" id="path154-4"/>
    <path d="m 442.368,645.12 h 61.44 v 61.44 h -61.44 z" fill="#57e389" id="path156-3"/>
    <path d="m 442.368,704.512 h 61.44 v 61.44 h -61.44 z" fill="#57e389" id="path158-0"/>
    <path d="m 501.76,645.12 h 61.44 v 61.44 h -61.44 z m 61.44,0 h 61.44 v 61.44 H 563.2 Z" fill="#57e389" id="path160-7"/>
    <path d="m 501.76,704.512 h 61.44 v 61.44 h -61.44 z" fill="#57e389" id="path162-8"/>
    <path d="m 563.2,704.512 h 61.44 v 61.44 H 563.2 Z" fill="#8ff0a4" id="path164-6"/>
    <path d="m 624.64,645.12 h 61.44 v 61.44 h -61.44 z" fill="#57e389" id="path166-8"/>
    <path d="m 684.032,645.12 h 61.44 v 61.44 h -61.44 z" fill="#8ff0a4" id="path168-8"/>
    <path d="m 624.64,704.512 h 61.44 v 61.44 H 624.64 Z M 745.472,462.848 h 61.44 v 61.44 h -61.44 z" fill="#8ff0a4" id="path170-4"/>
    <path d="m 745.472,522.24 h 61.44 v 61.44 h -61.44 z M 442.368,765.952 h 61.44 v 61.44 h -61.44 z" fill="#8ff0a4" id="path172-3"/>
    <path d="m 501.76,765.952 h 61.44 v 61.44 h -61.44 z" fill="#8ff0a4" id="path174-1"/>
  </g>
  <g id="SVGRepo_iconCarrier-4-7" style="display: inline;" transform="matrix(0.23633500933647156, 0, 0, 0.23633500933647156, 122.58547210693382, 119.11505889892601)">
    <path d="m 319.488,280.576 h 61.44 v 61.44 h -61.44 z m 61.44,0 h 61.44 v 61.44 h -61.44 z m 61.44,-61.44 h 61.44 v 61.44 h -61.44 z" fill="#8ff0a4" id="path90-7-3"/>
    <path d="m 442.368,280.576 h 61.44 v 61.44 h -61.44 z" fill="#57e389" id="path92-8-6"/>
    <path d="m 501.76,219.136 h 61.44 v 61.44 h -61.44 z" fill="#8ff0a4" id="path94-4-5"/>
    <path d="m 501.76,280.576 h 61.44 v 61.44 h -61.44 z" fill="#57e389" id="path96-5-6"/>
    <path d="m 563.2,280.576 h 61.44 v 61.44 H 563.2 Z m -303.104,59.392 h 61.44 v 61.44 h -61.44 z m 0,61.44 h 61.44 v 61.44 h -61.44 z" fill="#8ff0a4" id="path98-0-3"/>
    <path d="m 319.488,339.968 h 61.44 v 61.44 h -61.44 z m 61.44,0 h 61.44 v 61.44 h -61.44 z m -61.44,61.44 h 61.44 v 61.44 h -61.44 z m 61.44,0 h 61.44 v 61.44 h -61.44 z m 61.44,-61.44 h 61.44 v 61.44 h -61.44 z m 0,61.44 h 61.44 v 61.44 h -61.44 z" fill="#57e389" id="path100-3-9"/>
    <path d="m 501.76,339.968 h 61.44 v 61.44 h -61.44 z m 61.44,0 h 61.44 v 61.44 H 563.2 Z m -61.44,61.44 h 61.44 v 61.44 h -61.44 z m 61.44,0 h 61.44 v 61.44 H 563.2 Z" fill="#57e389" id="path102-6-4"/>
    <path d="m 198.656,462.848 h 61.44 v 61.44 h -61.44 z" fill="#8ff0a4" id="path104-1-8"/>
    <path d="m 260.096,462.848 h 61.44 v 61.44 h -61.44 z" fill="#57e389" id="path106-0-1"/>
    <path d="m 319.488,462.848 h 61.44 v 61.44 h -61.44 z m 61.44,0 h 61.44 v 61.44 h -61.44 z" fill="#57e389" id="path108-6-2"/>
    <path d="m 442.368,462.848 h 61.44 v 61.44 h -61.44 z" fill="#8ff0a4" id="path110-3-9"/>
    <path d="m 501.76,462.848 h 61.44 v 61.44 h -61.44 z" fill="#8ff0a4" id="path112-2-3"/>
    <path d="m 563.2,462.848 h 61.44 v 61.44 H 563.2 Z" fill="#57e389" id="path114-0-9"/>
    <path d="m 198.656,522.24 h 61.44 v 61.44 h -61.44 z" fill="#8ff0a4" id="path116-6-0"/>
    <path d="m 260.096,522.24 h 61.44 v 61.44 h -61.44 z" fill="#57e389" id="path118-1-8"/>
    <path d="m 260.096,583.68 h 61.44 v 61.44 h -61.44 z" fill="#8ff0a4" id="path120-5-8"/>
    <path d="m 319.488,522.24 h 61.44 v 61.44 h -61.44 z m 61.44,0 h 61.44 v 61.44 h -61.44 z m -61.44,61.44 h 61.44 v 61.44 h -61.44 z m 61.44,0 h 61.44 v 61.44 h -61.44 z" fill="#57e389" id="path122-5-5"/>
    <path d="m 442.368,522.24 h 61.44 v 61.44 h -61.44 z" fill="#8ff0a4" id="path124-4-0"/>
    <path d="m 442.368,583.68 h 61.44 v 61.44 h -61.44 z" fill="#57e389" id="path126-7-9"/>
    <path d="m 501.76,522.24 h 61.44 v 61.44 h -61.44 z" fill="#8ff0a4" id="path128-6-6"/>
    <path d="m 563.2,522.24 h 61.44 v 61.44 H 563.2 Z m -61.44,61.44 h 61.44 v 61.44 h -61.44 z m 61.44,0 h 61.44 v 61.44 H 563.2 Z" fill="#57e389" id="path130-5-3"/>
    <path d="m 624.64,280.576 h 61.44 v 61.44 h -61.44 z" fill="#8ff0a4" id="path132-6-8"/>
    <path d="m 624.64,339.968 h 61.44 v 61.44 h -61.44 z" fill="#57e389" id="path134-9-5"/>
    <path d="m 684.032,339.968 h 61.44 v 61.44 h -61.44 z" fill="#8ff0a4" id="path136-3-6"/>
    <path d="m 624.64,401.408 h 61.44 v 61.44 h -61.44 z" fill="#57e389" id="path138-7-1"/>
    <path d="m 684.032,401.408 h 61.44 v 61.44 h -61.44 z" fill="#8ff0a4" id="path140-4-1"/>
    <path d="m 624.64,462.848 h 61.44 v 61.44 h -61.44 z" fill="#57e389" id="path142-5-5"/>
    <path d="m 684.032,462.848 h 61.44 v 61.44 h -61.44 z" fill="#57e389" id="path144-2-9"/>
    <path d="m 624.64,522.24 h 61.44 v 61.44 h -61.44 z" fill="#57e389" id="path146-5-8"/>
    <path d="m 684.032,522.24 h 61.44 v 61.44 h -61.44 z m -59.392,61.44 h 61.44 v 61.44 h -61.44 z" fill="#57e389" id="path148-4-4"/>
    <path d="m 684.032,583.68 h 61.44 v 61.44 h -61.44 z m -423.936,61.44 h 61.44 v 61.44 h -61.44 z" fill="#8ff0a4" id="path150-7-8"/>
    <path d="m 319.488,645.12 h 61.44 v 61.44 h -61.44 z m 61.44,0 h 61.44 v 61.44 h -61.44 z" fill="#57e389" id="path152-4-1"/>
    <path d="m 319.488,704.512 h 61.44 v 61.44 h -61.44 z m 61.44,0 h 61.44 v 61.44 h -61.44 z" fill="#8ff0a4" id="path154-4-0"/>
    <path d="m 442.368,645.12 h 61.44 v 61.44 h -61.44 z" fill="#57e389" id="path156-3-3"/>
    <path d="m 442.368,704.512 h 61.44 v 61.44 h -61.44 z" fill="#57e389" id="path158-0-0"/>
    <path d="m 501.76,645.12 h 61.44 v 61.44 h -61.44 z m 61.44,0 h 61.44 v 61.44 H 563.2 Z" fill="#57e389" id="path160-7-4"/>
    <path d="m 501.76,704.512 h 61.44 v 61.44 h -61.44 z" fill="#57e389" id="path162-8-4"/>
    <path d="m 563.2,704.512 h 61.44 v 61.44 H 563.2 Z" fill="#8ff0a4" id="path164-6-4"/>
    <path d="m 624.64,645.12 h 61.44 v 61.44 h -61.44 z" fill="#57e389" id="path166-8-4"/>
    <path d="m 684.032,645.12 h 61.44 v 61.44 h -61.44 z" fill="#8ff0a4" id="path168-8-7"/>
    <path d="m 624.64,704.512 h 61.44 v 61.44 H 624.64 Z M 745.472,462.848 h 61.44 v 61.44 h -61.44 z" fill="#8ff0a4" id="path170-4-6"/>
    <path d="m 745.472,522.24 h 61.44 v 61.44 h -61.44 z M 442.368,765.952 h 61.44 v 61.44 h -61.44 z" fill="#8ff0a4" id="path172-3-3"/>
    <path d="m 501.76,765.952 h 61.44 v 61.44 h -61.44 z" fill="#8ff0a4" id="path174-1-1"/>
  </g>
</svg>